/* XPM */
static char *background_resized[] = {
/* columns rows colors chars-per-pixel */
"33 33 54 1 ",
"  c #363746",
". c #343A52",
"X c #424354",
"o c #4A4955",
"O c #43465B",
"+ c #45495C",
"@ c #4B4B5B",
"# c #54505E",
"$ c #585059",
"% c #4C4E63",
"& c #504F60",
"* c #4F5064",
"= c #565565",
"- c #5C5765",
"; c #5D5966",
": c #56566A",
"> c #595769",
", c #57586A",
"< c #5C5A6C",
"1 c #5E5B70",
"2 c #635B65",
"3 c #625D6C",
"4 c #625F72",
"5 c #5F6072",
"6 c #65606E",
"7 c #6B636D",
"8 c #656272",
"9 c #6B6574",
"0 c #6E6976",
"q c #6E6779",
"w c #6E6979",
"e c #716674",
"r c #726A76",
"t c #7D6F75",
"y c #716778",
"u c #746D7A",
"i c #786F7C",
"p c #767076",
"a c #7B7075",
"s c #76707C",
"d c #7A727D",
"f c #81757D",
"g c #8A7B7E",
"h c #776F80",
"j c #796F80",
"k c #7C7481",
"l c #7E7882",
"z c #827683",
"x c #837A84",
"c c #8B7C83",
"v c #837B88",
"b c #908187",
"n c #9C8787",
"m c #92848A",
/* pixels */
"4>;u09rrurukvddlurdiisik%3fas0ddu",
"u879800idi9wdudkuuddyud0rcue90luw",
"u;prau49su99i000u60suiuwc0i93fdru",
"0udddi87ddulxw09fusdkkuuilsuissrk",
"di90szzvsskdu<0dizdkiksddkusu9r9u",
"ujkudlyudlduusxukkquiswudlusluiiz",
"ykizvsuuzuru0k8uk18xds999usdvddzi",
"ukilduiduuu8ud9l58miuiu93dkkikkks",
"9ikkuurdduuhd9s<3cviuujhszkh8u9uv",
"u9iuiu9dzlws>%,8flsdj9kidiku909ri",
"k09lksslkkur>03dy9duusdiuruuw3690",
"8889ssddiyijvi04<9r80ddsller9@#r0",
"OO@eurssuuusudu%9deikdusk96r*=gf<",
"2tnx7ds9qidssl0.7dikiisisurz8gwO%",
"mms6ud06ziiukjuO$zkiikdushxzdk<;t",
"duwudd0fkuu9u0096cliuskuwsiii0irs",
"suuddikd0dlku;;ezvdllksu9lujkuujr",
"s30llui98uss9%o9uudllkw9uu0kiudi0",
"w39ikhkiuur:%8=3ddrskiuis<iz0u8sx",
"r00i=uidsis<a9;7dw3svuuku9u9iuulu",
"u0x83ciulu99re2rfdudiikkuursdw8ik",
"dds8rx0wx09rr3>fldhi9uir9uu83=@il",
"ru0iuuuviudvuu90ddli000u90rr9>3cd",
"iiuiuudhiddd0iuixslluuri9:ruu0afw",
"ikklkkuhkddurdsxkwkuw85@+X#9uiudd",
"uukkwwhd0skiwukdd0<ds=+Xo o2riudk",
"kkus<@><89i8rurds99is8;2-2o7clssk",
"kkidu3#ri99ruuusud39u>;9e72gi9dxi",
"kuiiu9dg7udklslh<l09<=<fuiikqsxsi",
"skuuusdirddiiik98ue93agdwudik0idu",
"usiu9ui8<uduuuhuukr0rcx94d0iwukzd",
"uhdu<uv90zusuuhisf3998ud99=ruikkd",
"jw99%<idklikllujk0uuu9du8.<ri0llu"
};
