/* XPM */
static char *dummy[]={
"32 32 276 2",
"b6 c #65665a",
"cr c #6b6b5f",
"cg c #6d6b5e",
"b8 c #6d6c60",
"ch c #6e6c5f",
"b7 c #6e6c60",
"c# c #6e6d61",
"ci c #6f6d60",
"ca c #706f62",
"b9 c #716f62",
"cf c #717062",
"c. c #727062",
"cc c #737264",
"cj c #747265",
"cb c #747365",
"cd c #757365",
"ce c #757366",
"cq c #767466",
"ck c #777668",
"cn c #787669",
"cp c #797769",
"cl c #79776a",
"cm c #7a776a",
"co c #7a786a",
"#L c #7e7868",
"bK c #858273",
"aI c #888576",
"#2 c #898270",
".E c #8b887a",
".P c #8d8b7c",
"bw c #8e8a7a",
"aQ c #8e8b7b",
"bQ c #8f8b7b",
"bL c #908b7a",
"bR c #908c7c",
"bM c #918c7b",
"bd c #918c7c",
"aJ c #928d7d",
"aY c #938f7e",
"bD c #948975",
"bN c #948e7e",
"bu c #958a76",
"aL c #959080",
"br c #959180",
".M c #959181",
"aT c #969180",
"aK c #969181",
".L c #969282",
"#. c #978c78",
"bJ c #97917f",
"aM c #979281",
"bn c #979382",
"a. c #988e79",
"bU c #989281",
"bV c #989381",
"aS c #989382",
"aV c #989483",
"bc c #998f7b",
"bH c #999382",
"bO c #999482",
"aR c #999483",
"#g c #9a8f7a",
"#3 c #9a9380",
"bm c #9a9483",
"bG c #9a9583",
"#4 c #9b9381",
"#q c #9b9481",
"bW c #9b9583",
"bP c #9b9584",
"bS c #9b9585",
"aU c #9b9684",
"#W c #9c917d",
".N c #9c9786",
".F c #9c9787",
".K c #9c9887",
"bT c #9d9786",
"aN c #9d9886",
".J c #9d9887",
".G c #9d9888",
".O c #9d9988",
"bY c #9e9786",
"ba c #9e9886",
"a4 c #9e9887",
"aO c #9e9987",
".H c #9e9988",
".I c #9e9989",
"bs c #9f9682",
"bx c #9f9886",
"aX c #9f9887",
"bE c #9f9986",
"aH c #9f9987",
"aP c #9f9b89",
".3 c #a09885",
"#u c #a09986",
"a9 c #a09a87",
"as c #a09a88",
"al c #a09a89",
"#c c #a19783",
"b2 c #a19a87",
"bF c #a19a88",
"bX c #a19a89",
"be c #a19b88",
"bf c #a19b89",
"b5 c #a19c8a",
"bB c #a29883",
"bo c #a29b89",
"by c #a29c89",
"ap c #a29c8a",
"#m c #a39884",
"bg c #a39d8a",
"bh c #a39d8b",
"aF c #a39d8c",
"#8 c #a49b86",
"a8 c #a49d8a",
"aZ c #a49d8b",
"a0 c #a49e8b",
"a1 c #a49e8c",
"b0 c #a49f8d",
"ak c #a59b86",
".7 c #a59d8a",
"bp c #a59e8b",
"b. c #a59e8c",
"bi c #a59f8c",
".U c #a59f8d",
"#B c #a59f8e",
"#F c #a5a08e",
"ae c #a69c87",
"bZ c #a69e8b",
"a6 c #a69f8c",
"a7 c #a69f8d",
"bA c #a6a08d",
"#w c #a6a08e",
"#Q c #a6a18e",
"aD c #a79f8c",
"bq c #a7a08d",
"ah c #a8a08d",
"b# c #a8a18e",
"a2 c #a8a28f",
"an c #a8a290",
"at c #a9a08d",
"ay c #a9a18d",
"ac c #a9a18e",
"bl c #a9a28f",
"bj c #a9a390",
"aq c #aaa18e",
"ad c #aaa28f",
"bk c #aaa390",
".# c #aaa391",
"#d c #aba18e",
"#n c #aba28e",
"#5 c #aba28f",
"#M c #aba390",
".a c #aba491",
".k c #aba492",
".m c #aba493",
"bC c #aca28e",
"#U c #aca38f",
"#0 c #aca490",
"bb c #aca491",
".l c #aca493",
".r c #aca592",
".t c #aca593",
".g c #aca594",
"a5 c #ada491",
"bz c #ada592",
".s c #ada593",
".j c #ada594",
"a3 c #ada692",
".w c #ada693",
".x c #ada694",
"af c #aea591",
"#1 c #aea692",
".C c #aea693",
".z c #aea694",
"aG c #aea793",
".u c #aea794",
".h c #aea795",
"#9 c #afa591",
"bt c #afa692",
"#S c #afa693",
"ao c #afa793",
"ar c #afa794",
".f c #afa795",
".n c #afa895",
".y c #afa896",
"b1 c #b0a692",
"#T c #b0a793",
".1 c #b0a794",
".6 c #b0a894",
".S c #b0a895",
".i c #b0a996",
".A c #b0a997",
"bI c #b1a794",
".Z c #b1a895",
".Y c #b1a995",
".e c #b1a996",
".v c #b1a997",
".p c #b1a998",
".b c #b1aa97",
".o c #b1aa98",
"b3 c #b2a894",
"#v c #b2a995",
"#f c #b2a996",
".0 c #b2aa96",
".d c #b2aa97",
".c c #b2aa98",
"a# c #b3a995",
".8 c #b3aa95",
".D c #b3aa96",
"#O c #b3aa97",
".R c #b3ab97",
".B c #b3ab98",
"ax c #b4aa96",
"aw c #b4ab97",
"#e c #b4ab98",
".Q c #b4ac98",
"am c #b5ab97",
".9 c #b5ac98",
"#C c #b5ad99",
"#X c #b6ac98",
"az c #b6ac99",
"#o c #b6ad99",
"#p c #b6ae9a",
"bv c #b7ad98",
"ab c #b7ad99",
".2 c #b7ae9a",
"au c #b7ae9b",
"b4 c #b7af9a",
"av c #b8ae9a",
"#R c #b8ae9b",
"#E c #b8af9a",
".T c #b8af9b",
"#V c #b9af9b",
"ai c #b9b09b",
".V c #b9b09c",
"#t c #b9b09d",
"#Y c #b9b19d",
"#k c #bab09c",
"#b c #bab09d",
"#x c #bab19c",
".X c #bab19d",
"#j c #bbb09c",
"aE c #bbb19c",
"#6 c #bbb19e",
"Qt c #bbb29d",
"#l c #bbb29e",
"aa c #bbb39e",
"#I c #bcb19d",
"aW c #bcb29d",
".W c #bcb29e",
"#7 c #bcb29f",
".4 c #bcb39e",
"#K c #bcb39f",
".q c #bcb3a1",
"ag c #bcb49f",
"#D c #bdb39f",
"#A c #bdb3a0",
"#J c #bdb49f",
"#P c #bdb4a0",
"#Z c #bdb5a0",
"#i c #beb49f",
"#H c #beb4a0",
"#G c #beb5a0",
"#N c #beb5a1",
"#s c #bfb5a0",
"#y c #bfb5a1",
"aj c #bfb6a1",
"## c #c0b6a1",
".5 c #c0b6a2",
"#a c #c0b7a2",
"#h c #c1b7a2",
"#r c #c1b7a3",
"#z c #c1b7a5",
"aB c #c1b8a4",
"aA c #c2b8a3",
"aC c #c4baa5",
"Qt.#.#.a.b.c.d.e.f.g.h.b.b.i.j.k.l.m.b.d.d.e.n.b.d.b.b.b.o.i.p.q",
".r.s.r.t.u.b.v.f.u.s.w.x.y.w.s.s.t.r.h.f.z.z.z.z.z.h.A.B.y.s.y.b",
".C.D.E.F.G.H.I.G.J.K.K.J.K.F.K.L.M.N.K.J.J.K.K.J.G.G.I.O.K.P.Q.R",
".S.T.U.V.V.W.X.V.V.V.V.V.V.V.V.Y.Z.V.V.V.V.T.V.V.V.V.V.V.V.U.V.0",
".1.2.3.V.4.5.X.V.V.V.V.V.V.V.V.S.6.V.V.V.V.V.V.V.V.V.V.V.V.7.8.e",
".S.9#..V###a.4.V.V.V.V.V.V.V.V.S.6.V.V.V.V.V.V#b.V.V.V.V.V#c#d#e",
"#f.9#g.V.5#h#h#i#j.V#k#l.V.V.V.1.1.T.V.V.V.V.V.V.V.V.V.V.V#m#n#o",
"#p.2#q.V#h#r#r#s.X#k.X.W.X.V.V.1.1.T.V.V.V.V.V.V.V#t.V.V.V#u#v.T",
".2.V#w#x#h#r#r#y.X.V#k.V.V.V.V.1.Z.V.V.V.V.V.V.V.V.V.V.V.V.UQt.T",
"#o.V#w#k#r#z#r#h.5#A.X.V.V.V.V.Y.Z.V.V.V.V.V.V.V.V.V.V.V.V#B.X.T",
"#C.V#w.V#h#r#h#h#h#D.V.V.V.V.V.Z.S.V.V.V.V.V.V.V.V.V.V#t.V#B.V#E",
".D.V#F.V.4#G#h#h#H#I#b#k#k.V.V.S.1#k.V.V.V#k#k.V#k.X.V.T.V.U.V.Q",
".Z.V#F.V.V#l#h#J#l#K.W#K.V.V.V.S.1#L#M.V#k#k#k.X#y#N#t.V.V#w.V#O",
".Y.V#F.T.T#k.X#x#l.V#K#P.V.V.V.S.6.d.V.V#k.V#b#H#h#h#P#K.V#Q.V.0",
".Y.V.U.V.2#v.T.V.X.X#H#t.V#R.2#S#T#U#V.T.T.V#k#K#N#h#h#h#k#w.V#O",
"#v#o#W.T#o#v#X.T#Y.X#Z#l.V.T.T#0#1#2#3#4#5.V#k#6#7#P#a##.X#8#9.2",
".9.9a..T.9a#.2.Vaa#l.X#k.V.Vabacadab.2.V#k.V.V#6#P#P#h#a#Paeaf#E",
"#o.9#..T#o#o.V#Y#lag#l#Y.V.T.2acah.9.T.Vai.V.V#b#l#G#h.5ajakaf#E",
".Q.Tal.Tabam.T.V#laj#Haj#G.T.T#0ad.D.2#k.T.V.X#K#l#K#Naj##an#J.T",
"ao#Xap#o.2#o.V.T.V#K#s#h#h#H.X#Maqa#.2#R.Tab.VQt.V#G#J#K#D#Q#K#E",
"ar#oas#X.2#o.T.9.V#l.5.5#h#a.Xacata##Xau.D.DavQt#l#G#P.X.V#F#l.T",
".e.Tas#X#Xaw.2ax.2.4#P#Z#h#a.Xayaha#.T.Vazax#X.T.V.X#G.V.V.U#K.T",
".S.2alax#V#V.4#k#DajaAaBaCaC.TataDax#J.4aEav#V#V.W.4#G.4.VaF.X.T",
"aGa#aHabaIaJaKaLaMaNaO.JaP.M.W#0acabaQaRaSaKaJaTaSaUaVaQaWas.V.2",
"aGaxaXavaYaZaZa0a1a2.r.#a3a4#H.Ca5#VaSa6a7a8a9b.a6b#a6aM#Vba.T#o",
"bb#Tbcabbdbebfbgbhbibjbkblbm#D.C#SQtbna6a6a0bob.bpbqb.bravbsbt#p",
"ad#9bubvbwbxbfbybga0a6bqa6aR.4bz.CaWaRbqb.b.aZa7b.bAb.br#xbBbC.2",
"acafbDabbwbEbebEbFb.b.a6bqbGQtad.C.WbHb.bpbgaZbib.a6b.aS.4bB#U#E",
"bbbIbJabbKbLbdbMbNaRbObPbPbQaEacbz#JbRbSbTbUbObVbUbmbWbw#DbX.9#o",
"bb.DbYa#ababav#V#x#K#J##aj.4ambZac#o.W#h#y#D#J#P#J#G###Jabb0.V.R",
"bba#bPbtbtb1.D#vaw.9#o#o#o.Dbtb2.7btb3.TQt.T.T#l.Vb4.4#oamb5.T.Q",
".ra#b6b7b8b9c.c#cacbcccdcecbcfcgchcicjckclcmcncocncpclcqcdcr.T.9"};
