/* XPM */
static char *Screenshot_from_2024_01_24_16_06_23_resized[] = {
/* columns rows colors chars-per-pixel */
"32 33 168 2 ",
"   c #1F0B10",
".  c #1F191A",
"X  c #340E11",
"o  c #241114",
"O  c #2A1719",
"+  c #391719",
"@  c #3B1C1C",
"#  c #1D1921",
"$  c #201725",
"%  c #281C25",
"&  c #2C2424",
"*  c #292428",
"=  c #352223",
"-  c #3A2525",
";  c #31252C",
":  c #362828",
">  c #3D292A",
",  c #342736",
"<  c #363132",
"1  c #461617",
"2  c #471F1F",
"3  c #48231F",
"4  c #62251E",
"5  c #452421",
"6  c #4D2422",
"7  c #472823",
"8  c #4E2C26",
"9  c #452C2C",
"0  c #482B28",
"q  c #5A2A24",
"w  c #54292A",
"e  c #5B2D2A",
"r  c #45322B",
"t  c #5E3026",
"y  c #50342E",
"u  c #433434",
"i  c #4E3832",
"p  c #463B38",
"a  c #4C3B3A",
"s  c #5A3732",
"d  c #563B35",
"f  c #513C3F",
"g  c #662A23",
"h  c #632B25",
"j  c #712D23",
"k  c #792B23",
"l  c #66342C",
"z  c #6B322D",
"x  c #73392D",
"c  c #643E36",
"v  c #693A30",
"b  c #713931",
"n  c #46403B",
"m  c #4D413E",
"M  c #57443D",
"N  c #5B413F",
"B  c #734439",
"V  c #3D3C4B",
"C  c #513C40",
"Z  c #4D4241",
"A  c #49484F",
"S  c #574443",
"D  c #5B4644",
"F  c #524C45",
"G  c #5D4D49",
"H  c #5E5851",
"J  c #604E4B",
"K  c #6B5046",
"L  c #65554E",
"P  c #6A534D",
"I  c #63584E",
"U  c #775449",
"Y  c #675054",
"T  c #695252",
"R  c #665F57",
"E  c #6B5F59",
"W  c #725A56",
"Q  c #7B5B53",
"!  c #745D59",
"~  c #795F59",
"^  c #6C6358",
"/  c #7C6256",
"(  c #73655D",
")  c #79615B",
"_  c #73685F",
"`  c #626063",
"'  c #6F6760",
"]  c #736763",
"[  c #756D62",
"{  c #7C6C60",
"}  c #7A7166",
"|  c #7B766A",
" . c #7E786C",
".. c #656F7E",
"X. c #756C71",
"o. c #6A737A",
"O. c #87382C",
"+. c #84473A",
"@. c #8C4F3F",
"#. c #8A5B4B",
"$. c #945D4B",
"%. c #876353",
"&. c #956653",
"*. c #916859",
"=. c #A36C56",
"-. c #B7705A",
";. c #846A65",
":. c #896E66",
">. c #8B6F69",
",. c #8D7667",
"<. c #85736B",
"1. c #8E726C",
"2. c #987762",
"3. c #9E7964",
"4. c #8A7271",
"5. c #977B70",
"6. c #A77F68",
"7. c #B57E66",
"8. c #B47E68",
"9. c #96806D",
"0. c #8A8475",
"q. c #8E897A",
"w. c #948977",
"e. c #9C867D",
"r. c #948C7D",
"t. c #988E7C",
"y. c #97907F",
"u. c #99907E",
"i. c #A9876E",
"p. c #BE8168",
"a. c #AB947D",
"s. c #BA967A",
"d. c #C5896E",
"f. c #C3977A",
"g. c #9C8F80",
"h. c #979284",
"j. c #9B9484",
"k. c #9E9887",
"l. c #9A9788",
"z. c #9F9988",
"x. c #8B8C90",
"c. c #A58B80",
"v. c #A09686",
"b. c #A09987",
"n. c #A39C8B",
"m. c #A89F8D",
"M. c #B5988F",
"N. c #B89E93",
"B. c #A6A08F",
"V. c #A8A08F",
"C. c #A7A190",
"Z. c #ACA493",
"A. c #AFA896",
"S. c #B0A795",
"D. c #BFA397",
"F. c #B2A996",
"G. c #B6AD9B",
"H. c #B8AF9D",
"J. c #B9B09E",
"K. c #BDB4A1",
"L. c #D9AE8E",
"P. c #C4AA9D",
"I. c #CFB7A8",
"U. c #D3BDAE",
"Y. c #DAC2A0",
"T. c #E2C7A3",
"R. c #F0CCA8",
"E. c #FEDFB8",
/* pixels */
"Z.Z.Z.A.F.A.F.A.A.A.A.A.F.A.Z.Z.A.Z.A.F.F.F.A.A.A.A.F.H.A.A.A.A.",
"n.h.h.h.l.l.l.l.h.l.h.h.l.h.l.h.h.h.l.l.h.h.l.h.l.l.l.l.l.h.l.C.",
"Z.h.Z.Z.C.C.C.C.C.C.C.C.C.B.h. .} h.B.C.B.C.Z.V.C.C.C.C.C.C.l.A.",
"Z.Z.G.G.K.K.H.K.H.H.J.J.z.' T G S G ] n.H.H.H.H.G.H.K.G.J.H.C.A.",
"Z.z.G.H.K.K.H.H.G.H.Z.[ Z Y T :.;.>.W T z.J.H.H.G.H.H.G.H.G.l.C.",
"Z.q.G.K.K.K.H.H.H.H.( u G D :.>.Y S f C E H.H.H.H.H.G.H.H.G.j.C.",
"Z.t.G.K.K.K.K.H.H.H.H $ C W ~ S K i.s./ < m.H.H.H.H.H.G.G.G.t.Z.",
"Z.h.G.K.I.K.K.H.H.J.k.* % Y a s &.s.Y.6.y v.H.H.G.H.H.G.H.G.j.Z.",
"F.C.H.K.K.K.K.K.J.H.A.< # , K 3.= d a.9 u C.J.H.H.H.H.G.H.H.B.A.",
"F.C.G.K.I.K.K.K.K.K.H.F O & d <...V ] A A g.H.G.H.G.G.H.G.G.C.F.",
"F.C.H.K.K.K.J.I.K.J.H.q.Q U 8 *.x.o.c.X.` B.H.G.G.H.G.H.H.G.C.A.",
"A.C.G.J.K.K.K.K.K.H.G.B.+.k h d.$.K v b ~ G.J.G.H.H.H.H.G.G.B.A.",
"A.C.H.H.G.K.K.K.J.J.H.H.h.{ 6 g q k j 4 K S.G.G.J.K.J.G.H.G.C.A.",
"A.C.F.H.J.J.J.J.J.J.K.J.J.J.L X 4 O.O.g ] H.G.J.K.K.K.J.H.G.B.A.",
"A.C.H.H.F.G.H.J.J.H.K.H.Z.} p 9 + 1 X - n.H.J.J.K.K.K.K.K.G.C.A.",
"Z.n.H.H.F.F.G.G.J.J.K.G._ ) m p C 7 : = } G.G.H.K.K.K.K.K.G.n.A.",
"S.t.F.G.F.F.G.H.H.G.K.v.! P.<.G e.c.e.a L Z.H.H.J.K.K.K.K.G.j.Z.",
"V.t.G.G.F.G.G.H.K.K.J.[ ;.M.P ( U.P.P.m S j.J.H.H.K.K.K.K.K.u.Z.",
"S.t.G.G.F.G.H.J.K.K.h.J e.! 9 R I.D.N.m <.} H.H.J.K.K.K.J.I.j.S.",
"S.m.G.G.F.G.H.H.K.K.t.N 5.D - i 1.4.) > / [ H.J.J.J.K.K.K.J.V.G.",
"V.m.F.G.G.G.F.G.G.K.h.$.p.r   @ ; V % @ =.,.H.J.J.J.K.J.J.H.Z.A.",
"V.n.F.G.F.G.G.F.K.K.v.8.R.M o 3 e w 6 i T.9.A.H.J.K.J.J.G.G.Z.A.",
"S.m.F.G.F.G.G.G.J.K.v.8.E.a.y b l 2 z c f.2.Z.G.J.J.K.J.H.G.B.A.",
"V.n.F.S.Z.S.Z.F.F.J.e.7.E.L.#.b 0 O b q l %.Z.Z.A.A.A.A.G.G.B.A.",
"V.n.F.j.u.z.z.h.k.B.0.@.-.+.q b M - x t  .y.y.y.k.n.k.k.n.F.B.Z.",
"V.b.F.b.b.n.n.n.B.V.B.} U r 3 l I - l M k.C.n.n.B.B.B.B.b.F.n.S.",
"V.u.F.j.z.n.n.n.B.B.V.Z.n.u 3 8 [ - t y y.C.n.n.n.n.B.b.B.F.u.Z.",
"m.w.S.u.j.k.z.z.k.B.B.B.| & c 7 M = M > 0.C.n.n.n.B.n.k.u.F.t.Z.",
"b.w.Z.u.j.k.b.k.n.n.B.B.} u ) D M n ( M ^ u.V.n.n.B.B.B.B.G.t.Z.",
"B.y.F.u.y.j.j.j.z.z.k.B.0.7 t 8 } .   h B I a.b.b.b.n.u.n.G.u.Z.",
"V.z.F.B.B.b.B.B.B.Z.Z.A.0.@ e 5 ^ n & > > m C.Z.Z.C.Z.Z.S.G.V.S.",
"V.z.F.Z.F.F.F.F.H.G.G.J.B.' ^ ^ w.Z.b.b.b.C.G.J.J.J.J.J.G.F.B.Z.",
"V.q.r.r.y.y.y.y.y.h.j.h.j.j.y.q.q.y.y.k.k.k.z.k.k.z.z.k.u.j.y.Z."
};
