/* XPM */
static char *Screenshot_from_2024_01_24_15_21_15_resized[] = {
/* columns rows colors chars-per-pixel */
"32 32 175 2 ",
"   c #15040A",
".  c #130E14",
"X  c #19131D",
"o  c #320D10",
"O  c #251014",
"+  c #2B1315",
"@  c #271518",
"#  c #291518",
"$  c #28181B",
"%  c #3C1314",
"&  c #35171A",
"*  c #3C1D1C",
"=  c #201624",
"-  c #231C23",
";  c #2C1B20",
":  c #331C20",
">  c #292220",
",  c #2B252B",
"<  c #3D2121",
"1  c #342825",
"2  c #32262D",
"3  c #3A2628",
"4  c #36282A",
"5  c #3A2B2B",
"6  c #3A302D",
"7  c #342C36",
"8  c #3B2C32",
"9  c #3C3135",
"0  c #39343B",
"q  c #441B1B",
"w  c #54221C",
"e  c #5A231D",
"r  c #63241F",
"t  c #452424",
"y  c #482827",
"u  c #442D2C",
"i  c #4F2D2B",
"p  c #522623",
"a  c #5A2623",
"s  c #542A27",
"d  c #552D2B",
"f  c #5E2F29",
"g  c #47322E",
"h  c #54322C",
"j  c #412F30",
"k  c #492F30",
"l  c #483537",
"z  c #4D3636",
"x  c #44353A",
"c  c #43393D",
"v  c #533935",
"b  c #533D3C",
"n  c #5A3C38",
"m  c #642D27",
"M  c #6B2A21",
"N  c #6B352E",
"B  c #7A3126",
"V  c #72362C",
"C  c #72392D",
"Z  c #673830",
"A  c #6B3B30",
"S  c #723731",
"D  c #713931",
"F  c #7A3B32",
"G  c #4E423D",
"H  c #58433C",
"J  c #6A4339",
"K  c #64483F",
"L  c #3B3945",
"P  c #4C3E44",
"I  c #443E49",
"U  c #523F48",
"Y  c #474047",
"T  c #4B4143",
"R  c #4C474E",
"E  c #554444",
"W  c #5A4745",
"Q  c #584746",
"!  c #5E4A46",
"~  c #53494D",
"^  c #5B4A4A",
"/  c #454553",
"(  c #4F4854",
")  c #45495A",
"_  c #4E4D5E",
"`  c #544B54",
"'  c #5A4C51",
"]  c #544E59",
"[  c #4E505A",
"{  c #56515D",
"}  c #5B535C",
"|  c #624A4B",
" . c #6D4D4C",
".. c #774E41",
"X. c #67514D",
"o. c #77564E",
"O. c #79574F",
"+. c #655352",
"@. c #685655",
"#. c #725B57",
"$. c #755D5B",
"%. c #7D645D",
"&. c #4B4C61",
"*. c #514F60",
"=. c #535264",
"-. c #595562",
";. c #5E5967",
":. c #56566B",
">. c #585768",
",. c #5E5B6B",
"<. c #665760",
"1. c #625B66",
"2. c #625E6C",
"3. c #645F70",
"4. c #686067",
"5. c #65616E",
"6. c #6A636E",
"7. c #726567",
"8. c #7B6C66",
"9. c #666272",
"0. c #6B6573",
"q. c #6E6875",
"w. c #6F6A79",
"e. c #706674",
"r. c #726A76",
"t. c #7A6D73",
"y. c #746D7A",
"u. c #786F7D",
"i. c #6F7173",
"p. c #7D7077",
"a. c #76707C",
"s. c #7A727E",
"d. c #83362A",
"f. c #834C3C",
"g. c #845243",
"h. c #805648",
"j. c #985A4A",
"k. c #946B58",
"l. c #806561",
"z. c #856A63",
"x. c #8A6D67",
"c. c #82766D",
"v. c #93766C",
"b. c #987F6E",
"n. c #82757C",
"m. c #85797F",
"M. c #A07B65",
"N. c #BA7E65",
"B. c #87807F",
"V. c #99847B",
"C. c #9F887E",
"Z. c #B0806A",
"A. c #A78A7A",
"S. c #D59174",
"D. c #7C7481",
"F. c #807682",
"G. c #837982",
"H. c #8B7D84",
"J. c #7C8997",
"K. c #A68D82",
"L. c #AC9384",
"P. c #BCA589",
"I. c #BEA396",
"U. c #C7A587",
"Y. c #DBAB8C",
"T. c #CEB293",
"R. c #D7B694",
"E. c #E3AD8D",
"W. c #E4B996",
"Q. c #C6AEA1",
"!. c #CCB1A3",
"~. c #D2BBAC",
"^. c #DCC19E",
"/. c #F1D4AD",
"(. c #FCE4BC",
/* pixels */
"9.5.6.0.9.q.r.r.r.y.w.D.D.a.a.6.6.i.s.s.y.u.u.3.y.n.s.r.r.s.u.y.",
"9.5.e.e.y.q.r.a.D.y.0.w.9.] +.E c T } r.y.u.w.y.G.r.e.0.0.D.y.r.",
"6.t.a.a.s.0.,.q.t.r.e.} P @. .#.%.z.X.` r.u.w.u.s.s.y.r.y.n.y.y.",
"s.y.a.a.D.D.s.s.a.y.~ 9 ^ W z.v.$.$.@.| ] r.u.D.D.s.y.y.0.y.r.y.",
"u.u.r.r.D.D.s.a.u.6., x ^ #.z.$.b H | v 9 4.a.a.s.a.a.s.y.y.y.y.",
"u.D.D.D.D.a.w.D.F.r., = x l.E h M.W./.U.g ` r.r.a.s.s.D.s.s.s.F.",
"y.D.s.G.D.u.y.s.u.y.( X 7 U v J Z h.P...y ] q.5.q.s.D.D.D.s.D.s.",
"w.D.D.s.r.y.y.s.y.y.-.. = = k.b.L 9 L.9 7 ;.s.r.s.D.D.w.u.y.y.D.",
"w.y.s.s.y.r.r.D.D.D.0., T 1 v 7.J.[ 7._ _ ] D.a.s.s.D.3.0.q.0.D.",
"w.0.r.D.u.y.s.D.G.y.w.' j.C A Z.B.i.A.8.} 6.u.a.y.a.D.r.0.9.0.r.",
"9.0.y.D.a.a.s.s.D.y.D.<.F r m N.f.C e C K r.s.u.s.a.r.r.,.=.2.r.",
":.*.:.r.r.a.s.s.r.r.u.u.6.` q w w B B M t q.s.s.D.q.0.0.=.1.t.y.",
"-.7.m.y.e.a.q.w.y.y.a.a.D.r.8 o r d.d.r P y.u.y.y.0.u.0.2.m.0.:.",
"H.H.s.0.a.s.0.r.y.D.a.u.0.Y 4 k & % % # ;.D.u.y.s.s.G.s.s.y.=.;.",
"F.y.w.y.a.a.e.F.D.u.r.2.E z.6 H H t 5 > ~ u.u.w.y.D.u.s.u.e.0.0.",
"u.r.y.D.a.a.p.s.y.u.u.( x.!.@.+.V.A.C.G E 6.a.y.r.D.u.D.u.y.u.u.",
"y.0.s.D.u.u.r.0.w.s.r.T K.L.! c.~.I.Q.Q b } w.0.a.r.y.a.u.y.D.w.",
"0.,.a.D.D.D.D.w.a.r.` X.V.| u 8.~.I.I.T 8.` q.a.q.0.u.D.r.y.y.y.",
"r.0.r.r.9.a.u.y.a.a.P %.K.z 3 ! A.V.v.6 z.^ q.u.0.r.u.w.u.0.a.a.",
"w.y.s.2.q.s.u.D.s.q.E j.h.$ O * 9 / 4 # f. .s.u.r.0.r.D.a.w.u.a.",
"s.D.w.2.s.D.r.a.s.0.^ E.U.> + * t u : : R.v.e.y.r.a.w.0.3.:.2.D.",
"a.r.r.r.u.r.u.F.u.r. .E.^.G & N S a N h T.Z.2.w.q.r.w.9.,.=.r.G.",
"a.r.u.y.w.u.D.D.D.u. .W.(.R.J F t O N f f.g.6.r.9.0.t.r.0.6.n.s.",
"D.D.D.D.D.D.r.u.u.u. .S.Y.j.A D 8 # S s z ] 2.=.&.*.5.y.u.u.s.s.",
"u.a.D.D.D.D.w.u.s.D.+.N F t a S c ; S h >.=.) / L / -.5.y.y.a.s.",
"D.D.D.w.:.:.9.9.9.u.w.,.} $ a d R : f i ;.>.-.} ] ] { n.F.s.a.s.",
"D.D.u.y.2.-.>.q.r.0.0.r.] O p * R @ p < { >.5.6.9.1.4.m.a.a.s.D.",
"D.r.a.a.q.0.p.n.0.y.y.D.I z O.z 7 u o.b Y >.0.t.r.y.n.s.q.s.D.s.",
"D.u.u.r.r.s.s.y.r.s.s.D.Y j ! x L 3 W n l } m.a.y.D.y.D.a.s.s.s.",
"a.D.y.w.w.u.y.0.q.s.s.y.' w V s ] .   a V d e.9.w.y.r.D.q.y.D.D.",
"y.D.u.0.9.D.y.2.r.s.y.a.I & y * { 0 - , 2 , 0.0.r.3.0.r.r.D.D.D.",
"D.q.w.3.>.r.s.s.G.s.a.D.6.{ { { 6.q.0.2.2.6.D.0.:.&.0.w.y.y.F.s."
};
