/* XPM */
static char *Screenshot_from_2024_01_24_15_29_18_resized[] = {
/* columns rows colors chars-per-pixel */
"32 32 222 2 ",
"   c #535E35",
".  c #744F31",
"X  c #785532",
"o  c #546C36",
"O  c #49783D",
"+  c #577C3A",
"@  c #626A33",
"#  c #7A683A",
"$  c #3E6E4F",
"%  c #54505B",
"&  c #4B6E59",
"*  c #6E6844",
"=  c #6A7747",
"-  c #4D4E62",
";  c #545365",
":  c #5A5768",
">  c #675E67",
",  c #625E6D",
"<  c #546A65",
"1  c #5D7B65",
"2  c #68656A",
"3  c #796A6E",
"4  c #66746B",
"5  c #666272",
"6  c #6B6574",
"7  c #6E6876",
"8  c #6F6978",
"9  c #706574",
"0  c #726B76",
"q  c #7C6D73",
"w  c #746D7A",
"e  c #796F7C",
"r  c #677170",
"t  c #7E7275",
"y  c #76707B",
"u  c #7A727E",
"i  c #8E3827",
"p  c #B12D22",
"a  c #CA291D",
"s  c #D82B22",
"d  c #C73425",
"f  c #D7342A",
"g  c #DA3A32",
"h  c #EC2E28",
"j  c #E63D36",
"k  c #85432A",
"l  c #9C4E34",
"z  c #8F5736",
"x  c #925339",
"c  c #96573A",
"v  c #9C5C3B",
"b  c #A84B3A",
"n  c #B64D3C",
"m  c #AB563D",
"M  c #B8523B",
"N  c #876E36",
"B  c #97663D",
"V  c #A5663C",
"C  c #AF6E38",
"Z  c #CC4F31",
"A  c #C84837",
"S  c #D9453C",
"D  c #E5453E",
"F  c #975845",
"G  c #A55648",
"H  c #B35845",
"J  c #BE5941",
"K  c #AC4D51",
"L  c #B2555D",
"P  c #856846",
"I  c #956343",
"U  c #8A665C",
"Y  c #9A745A",
"T  c #A86446",
"R  c #AE6A4F",
"E  c #AD6C4D",
"W  c #A67956",
"Q  c #AB7C55",
"!  c #B37A54",
"~  c #9D596A",
"^  c #BA5A69",
"/  c #A65671",
"(  c #8A6E64",
")  c #897569",
"_  c #957565",
"`  c #8A6C78",
"'  c #837274",
"]  c #83757C",
"[  c #897A79",
"{  c #B26D6D",
"}  c #D74E41",
"|  c #C75644",
" . c #EB5047",
".. c #D66E54",
"X. c #C87472",
"o. c #4D883E",
"O. c #168E50",
"+. c #37844B",
"@. c #309247",
"#. c #11B051",
"$. c #19BA53",
"%. c #28A74A",
"&. c #2AA957",
"*. c #21B956",
"=. c #2FBB53",
"-. c #3F9062",
";. c #508D4E",
":. c #568957",
">. c #698347",
",. c #6E924D",
"<. c #4CAA4E",
"1. c #7BB94E",
"2. c #4A9263",
"3. c #708B61",
"4. c #0CCC58",
"5. c #17C154",
"6. c #05D95D",
"7. c #11D15D",
"8. c #30D157",
"9. c #02E762",
"0. c #B39D1F",
"q. c #AE8A2A",
"w. c #B8B438",
"e. c #CB8C3A",
"r. c #D98A3A",
"t. c #D4923C",
"y. c #E68D37",
"u. c #EA9437",
"i. c #E79C37",
"p. c #E4933C",
"a. c #EB953B",
"s. c #ED9B39",
"d. c #F29639",
"f. c #F39B3A",
"g. c #FC9E3C",
"h. c #E5A53B",
"j. c #ECA23A",
"k. c #ECAC3A",
"l. c #F6A33B",
"z. c #FAA23B",
"x. c #F1AB3B",
"c. c #FAAB3B",
"v. c #F6B43C",
"b. c #F9B33B",
"n. c #FDBA3C",
"m. c #BCC339",
"M. c #939056",
"N. c #AD8648",
"B. c #B58749",
"V. c #A98558",
"C. c #B68656",
"Z. c #8FAC47",
"A. c #BEBE48",
"S. c #BCB557",
"D. c #988278",
"F. c #A28B6B",
"G. c #B68B68",
"H. c #AD926F",
"J. c #B39565",
"K. c #B8956A",
"L. c #91AF73",
"P. c #B2B072",
"I. c #C8854A",
"U. c #D88C43",
"Y. c #CA9C4F",
"T. c #D99945",
"R. c #C89A5D",
"E. c #E4994B",
"W. c #F39E43",
"Q. c #D1A94E",
"!. c #E3A442",
"~. c #F2A749",
"^. c #EEB44B",
"/. c #F6B845",
"(. c #F1B74C",
"). c #F8BD4A",
"_. c #E3A853",
"`. c #F3AC56",
"'. c #EDB75A",
"]. c #F3B857",
"[. c #C48964",
"{. c #CE986A",
"}. c #CA8A74",
"|. c #D6AD67",
" X c #D7AB7D",
".X c #C6B87D",
"XX c #DCBB78",
"oX c #E9B968",
"OX c #F1B264",
"+X c #F2BC64",
"@X c #E7BD75",
"#X c #FEC146",
"$X c #FFC248",
"%X c #F9C359",
"&X c #D8C178",
"*X c #F9C566",
"=X c #F5C46B",
"-X c #EFC372",
";X c #F7C778",
":X c #FBD17C",
">X c #7C7381",
",X c #807682",
"<X c #837981",
"1X c #897C84",
"2X c #AC7B8D",
"3X c #CF7E8A",
"4X c #B18D87",
"5X c #C59894",
"6X c #C7A78C",
"7X c #DCB586",
"8X c #E6BA89",
"9X c #E0B99A",
"0X c #D1CE92",
"qX c #E7C483",
"wX c #EBC68C",
"eX c #F4CB84",
"rX c #FACB81",
"tX c #E5C592",
"yX c #EAC995",
"uX c #EFD19C",
"iX c #DEE29A",
"pX c #F8DAA2",
/* pixels */
"5 5 2 5 5 0 7 0 w 0 0 >X>Xw >X>Xw u u w 0 e >X, w ,Xu w 6 u y e ",
"7 5 9 0 w 9 9 w u 0 6 8 w 8 w w 6 7 y w w >X8 w ,X0 0 5 9 >X0 w ",
"5 0 t w u 0 : 7 y y y u u 8 5 0 0 7 y u >Xw w w ' _ ( 3 e u w w ",
"y y w y u >Xu u u u y >X8 5 8 u >Xu >X>X>Xq ( ! U.a.a.U.Y e 9 w ",
"u w w w u >Xu u y >Xy y 7 w >Xw >X>Xe q W I.a.f.s.x.v.d.y._ 9 u ",
"w >Xu >X,Xu 0 w >Xu y w y y 8 w w q D.E.d.f.j.j.v.v.j.b.l.Q u ,X",
"w >Xu >X>Xu w >Xu 8 8 5 y 8 7 D.V.T.*X].i.k.n.#X%X(.=X).).G.t >X",
"7 >X>Xy w w w >Xu y 8 y t ) C.T.l.l.f.=X^.h.k.(.-X;X:X).oX{.U u ",
"7 w u u w w 7 >X>X' _ I.U.~.c.f.d.u.~.:X:X'.h.u.T.`.%X@XyX..F ] ",
"w 6 6 u >Xw w [ 4XR.p.d.g.W.f.s.d.c.;X*X#X/.u.s.k.v.@XuX XH ~ ` ",
"8 5 0 >Xw w ) I.E.`.eXrX+X'.]./.*X*X+X#Xv.u.d.v.n.].yXtXQ ^ { > ",
"; ; ; 6 ' W r.y.y.E.`.;X=X'.$X/.%X`.c.c.f.z.b.n.).qXpX5XH.2X1 & ",
"; > ' _ U.d.s.s.W.g.u.y.a.OXrX%Xn.c.g.f.z.n.v.v.@XyX9X2X9XF.2.$ ",
"1XD.C.r.i.x.n.n.n.c.j.j.s.s.p.W.b.n.n.b.n./.v.^.wXyX4X6X0XF.D.2 ",
"[ I.a.!.!./.).%X+X@X;X:XrXeXoX].*X*X].^.(.(.@XwXpX6X6XiX.Xt 3 t ",
"( r.E.=XeX7X{.[.[.}.}.G.L.L.L..XXX&XXXqXwXwXwXwX8XA C.L.<.4 y t ",
"Q d.].eXG./ L T m K ^ F $ #.-.{ J.A.A.Y. .....E. .h # 7.&.q u 7 ",
"Y s.^.6X/ ^ F Q E G G ^ F * { 3X{ B.m.e.D S D D } f + 4.2.w y y ",
"Q `.(.7X^ F I M.>.W R T c b b R K.B.S.q.Z n n b ! P.=.+.4 6 y u ",
"I.+XOX8X^ * x x I | | E E E E T K.P.w.0.q.N l n H G.M.3.1 8 y u ",
"e.h.(.wXX.P X d j D D S } | M m P.0XC B o.5.@.>.>.c x @.& ; 6 >X",
"E r.v.|.}.,.O @ a s f g j g s Z J.W c O o.<.$.4.6.$.;.:.: : e ,X",
"e Y e._.8XP.o.B A A f s p l k + B b z i a f n z o #.$.r 6 9 [ u ",
">X>X) ! _.R.v m m J | M = O.O.#.%.@ L . i i p p i $.2.9 w w u u ",
"w u >X>X) B.C T B V B v N O.$.4.9.7.3.P o O   . . $ & 6 y y u u ",
">Xu >Xw : : 3 N.t.e.t.R.R.M.<.8.9.8.Z.<.$.5.@.N P % < ] u u y u ",
">X>Xw w 5 : % 3 ' Y C.Q.@XqXoXQ.Z.1.-XQ.,.5.&.:.> > > <Xy u >Xu ",
">Xw >Xw 0 2 q ] 6 w w ] [ _ F.F.V.C.J.V.M.%.*.:.0 q t w 8 u >Xy ",
">Xu w w w y u e 8 u u u w >X>X5 7 w 5 2 , 4 :.0 w u w u y u u y ",
"w >Xw 8 7 y w 5 8 u u 0 w w w 7 y w 7 5 u 1Xy 5 8 w w u 8 y >Xu ",
"w u u 7 5 w u 5 9 u u w w w u w u y 5 9 0 w >X6 w : 7 w w >X>X>X",
"w 8 8 5 : 7 u u >X>Xw >X>X>Xu u y 7 8 7 5 7 u 8 : - 6 0 w w ,Xu "
};
