/* XPM */
static char *Brick_16_128x128_resized[] = {
/* columns rows colors chars-per-pixel */
"33 33 53 1 ",
"  c #2A1B16",
". c #2B1D19",
"X c #331E18",
"o c #2E221D",
"O c #34231D",
"+ c #3C251D",
"@ c #2F2420",
"# c #3C2720",
"$ c #3C2922",
"% c #41271E",
"& c #44281F",
"* c #4A291F",
"= c #402720",
"- c #442B23",
"; c #4B2D23",
": c #532F23",
"> c #4D3027",
", c #463029",
"< c #4B332B",
"1 c #533126",
"2 c #583226",
"3 c #54352B",
"4 c #5B362A",
"5 c #56382E",
"6 c #5C3A2E",
"7 c #4A3730",
"8 c #4F3831",
"9 c #543B32",
"0 c #5C3D32",
"q c #643B2E",
"w c #6A3D2F",
"e c #633E32",
"r c #6A3F31",
"t c #5D4036",
"y c #55413A",
"u c #5E4238",
"i c #644135",
"p c #6B4234",
"a c #644338",
"s c #6C4639",
"d c #6C483B",
"f c #734435",
"g c #7A4635",
"h c #7D4837",
"j c #734738",
"k c #74493A",
"l c #7B4939",
"z c #804936",
"x c #834C3A",
"c c #8C4F3A",
"v c #89503D",
"b c #96553F",
"n c #835040",
/* pixels */
"3pwgxre6pr06rqeq-e5,<644irwerfwg3",
"4pllxps6eld06ppp%f09pppssslggggc3",
"0eejjpeels34qffq-ferefjk0895plgh;",
"rfli5spkp64pzchq%sepgfli,<90i0eh4",
"qjla0u0i6pfljlhr;p6hgfj0rk0ei0ex6",
"5psu990iipppphfw*pqgfgfqfp6ejpil-",
"6sjiaisjksfslglk-sklgljrfzhxkegk;",
"143;<,>>41331qe, ,3344q4qqqe1<44%",
"11,----+&31,;;$$-$--;;;- :4;-$#-;",
"xvsis0d4qxjjiiiauuuijkpf:fspesspj",
"la<0i9e:2kpppqeit06qpqwf&p06fjppp",
"a990sa5:2kpsqqfp90ewrhzf%peigliis",
"t09au0e1:fiqwjhrrrrqczrj#60ifjfp0",
"09900sk<4l6wgfjwpprewqps+5eiwhki0",
"iutyuu9<>jehhsrfgjfhgzjp+0iejclst",
"9997778,+0qgq4qpfwqfwfppO<<1qgr00",
"Oo@@o@@##+&-%%;&X&;;--&%XOX&**%+ ",
"9899ay8u06zljjzj-jgggfrjffhcbcjp<",
"50i08851eqgpsjge=jfpperzpfhxfppj;",
"ppau996pgpllffgq-fgjfwgrhrfrpkkp-",
"e098,96jpfgjqphp-fpieiwgglpppjii,",
"89t990eprjjgjjlp#p5ii9fgzgpefffa$",
"59e0au0qfgfxflp6O96i06egzjfpgjjs$",
"00esst4fffgfpdt0#pfp0qfjgfpppzja$",
"@O++$O+%+&--++OO.%O=%&*&O%%++*%O ",
"<89009i<-jgp550009rgferf&rfggwrei",
"ee0t900-#ipeqpeepiiljejl=rljwfje0",
"pppe890--ipegfeppiijpespOrgfrxfee",
"0efqpe5>:l0qzjpspsi0ie0e+fffzhfgp",
"efggzlfq;ppljsfjaiiee9rf%glpghpfs",
"pfpjxlvq-pzkwrfd0iaeppfg%gjelzffj",
"sjfxxlk3;lsjglli0ipduajf&gaehzjpj",
"--;:2;;=O4;;;;-----$@$-;X1--11-;-"
};
